<svg xmlns="http://www.w3.org/2000/svg" xmlns:xlink="http://www.w3.org/1999/xlink" viewBox="7390 0 115 115">
  <defs>
    <style>
      .cls-1 {
        clip-path: url(#clip-icon);
      }

      .cls-2, .cls-6 {
        fill: #fff;
      }

      .cls-2, .cls-3, .cls-5 {
        stroke: #ff664d;
      }

      .cls-2, .cls-5 {
        stroke-miterlimit: 10;
        stroke-width: 5px;
      }

      .cls-3, .cls-4 {
        fill: #ff664d;
      }

      .cls-5 {
        fill: none;
      }
    </style>
    <clipPath id="clip-icon">
      <rect x="7390" width="115" height="115"/>
    </clipPath>
  </defs>
  <g id="icon" class="cls-1">
    <rect class="cls-6" x="7390" width="115" height="115"/>
    <g id="Group_73" data-name="Group 73" transform="translate(7407.249 17.761)">
      <g id="Group_24" data-name="Group 24" transform="translate(0 0)">
        <ellipse id="Ellipse_16" data-name="Ellipse 16" class="cls-2" cx="40.366" cy="40.366" rx="40.366" ry="40.366"/>
        <g id="Group_23" data-name="Group 23" transform="translate(28.244 19.417)">
          <g id="Group_20" data-name="Group 20">
            <path id="Path_38" data-name="Path 38" class="cls-3" d="M9.524,11.5A3.653,3.653,0,0,1,5.7,8.224,3.734,3.734,0,0,1,9.524,4.4a3.734,3.734,0,0,1,3.824,3.824A3.653,3.653,0,0,1,9.524,11.5Z" transform="translate(-5.7 -3.854)"/>
            <path id="Path_39" data-name="Path 39" class="cls-3" d="M12.124,11.948A3.734,3.734,0,0,1,8.3,8.124,3.734,3.734,0,0,1,12.124,4.3a3.734,3.734,0,0,1,3.824,3.824C15.4,10.309,13.763,11.948,12.124,11.948Z" transform="translate(5.903 -4.3)"/>
          </g>
          <g id="Group_22" data-name="Group 22" transform="translate(0.546 14.75)">
            <path id="Path_40" data-name="Path 40" class="cls-4" d="M9.4,13.9s-1.093-1.639,0-2.731a2.049,2.049,0,0,1,3.278,0l7.1,7.1a2.049,2.049,0,0,1,0,3.278c-1.093,1.093-2.185,1.093-2.731,0Z" transform="translate(8.084 7.95)"/>
            <g id="Group_21" data-name="Group 21">
              <ellipse id="Ellipse_17" data-name="Ellipse 17" class="cls-5" cx="10.379" cy="10.379" rx="10.379" ry="10.379"/>
            </g>
          </g>
        </g>
      </g>
    </g>
  </g>
</svg>
