<svg xmlns="http://www.w3.org/2000/svg" xmlns:xlink="http://www.w3.org/1999/xlink" viewBox="7390 0 115 115">
  <defs>
    <style>
      .cls-1 {
        clip-path: url(#clip-icon);
      }

      .cls-2, .cls-5 {
        fill: #fff;
      }

      .cls-2, .cls-3, .cls-4 {
        stroke: #ff664d;
      }

      .cls-2, .cls-3 {
        stroke-miterlimit: 10;
      }

      .cls-2 {
        stroke-width: 5px;
      }

      .cls-3 {
        fill: none;
        stroke-width: 4px;
      }

      .cls-4 {
        fill: #ff664d;
        stroke-width: 3.5px;
      }
    </style>
    <clipPath id="clip-icon">
      <rect x="7390" width="115" height="115"/>
    </clipPath>
  </defs>
  <g id="icon" class="cls-1">
    <rect class="cls-5" x="7390" width="115" height="115"/>
    <g id="Group_71" data-name="Group 71" transform="translate(7407 17)">
      <g id="Group_19" data-name="Group 19" transform="translate(0)">
        <ellipse id="Ellipse_15" data-name="Ellipse 15" class="cls-2" cx="40.366" cy="40.366" rx="40.366" ry="40.366" transform="translate(0 0)"/>
      </g>
      <g id="Group_18" data-name="Group 18" transform="translate(23.427 21.917)">
        <path id="Path_34" data-name="Path 34" class="cls-3" d="M17.359,27.076s-8.838-3.388-13.845-10.9c0,0-6.334-8.985,1.031-13.993,6.481-4.419,12.814,4.861,12.814,4.861s6.334-9.279,12.814-4.861C37.685,7.191,31.2,16.176,31.2,16.176,26.2,23.688,17.359,27.076,17.359,27.076Z" transform="translate(-0.981 12.387)"/>
        <g id="Group_13" data-name="Group 13" transform="translate(4.261 0)">
          <path id="Path_28" data-name="Path 28" class="cls-4" d="M8.342,10.084A2.873,2.873,0,0,1,5.4,7.142,2.873,2.873,0,0,1,8.342,4.2a2.873,2.873,0,0,1,2.942,2.942A2.873,2.873,0,0,1,8.342,10.084Z" transform="translate(-5.4 -4.2)"/>
          <path id="Path_29" data-name="Path 29" class="cls-4" d="M12.942,10.084A2.873,2.873,0,0,1,10,7.142,2.873,2.873,0,0,1,12.942,4.2a2.873,2.873,0,0,1,2.942,2.942C15.464,8.823,14.2,10.084,12.942,10.084Z" transform="translate(9.333 -4.2)"/>
        </g>
      </g>
    </g>
  </g>
</svg>
